<?xml version="1.0" encoding="UTF-8" standalone="no"?>
<svg
   width="64"
   height="64"
   version="1.1"
   id="svg73"
   sodipodi:docname="face-smile.svg"
   inkscape:version="1.4.2 (ebf0e940d0, 2025-05-08)"
   xmlns:inkscape="http://www.inkscape.org/namespaces/inkscape"
   xmlns:sodipodi="http://sodipodi.sourceforge.net/DTD/sodipodi-0.dtd"
   xmlns:xlink="http://www.w3.org/1999/xlink"
   xmlns="http://www.w3.org/2000/svg"
   xmlns:svg="http://www.w3.org/2000/svg"
   xmlns:rdf="http://www.w3.org/1999/02/22-rdf-syntax-ns#"
   xmlns:cc="http://creativecommons.org/ns#"
   xmlns:dc="http://purl.org/dc/elements/1.1/">
  <metadata
     id="metadata77">
    <rdf:RDF>
      <cc:Work
         rdf:about="">
        <dc:format>image/svg+xml</dc:format>
        <dc:type
           rdf:resource="http://purl.org/dc/dcmitype/StillImage" />
      </cc:Work>
    </rdf:RDF>
  </metadata>
  <sodipodi:namedview
     pagecolor="#f5f7fa"
     bordercolor="#666666"
     borderopacity="1"
     objecttolerance="10"
     gridtolerance="10"
     guidetolerance="10"
     inkscape:pageopacity="0"
     inkscape:pageshadow="2"
     inkscape:window-width="1341"
     inkscape:window-height="844"
     id="namedview75"
     showgrid="false"
     inkscape:zoom="6.2890624"
     inkscape:cx="31.403727"
     inkscape:cy="26.633541"
     inkscape:window-x="26"
     inkscape:window-y="64"
     inkscape:window-maximized="0"
     inkscape:current-layer="g877"
     inkscape:document-rotation="0"
     inkscape:pagecheckerboard="0"
     inkscape:showpageshadow="2"
     inkscape:deskcolor="#d1d1d1" />
  <defs
     id="defs29">
    <linearGradient
       id="linearGradient2"
       inkscape:collect="always">
      <stop
         style="stop-color:#a7b6be;stop-opacity:1;"
         offset="0"
         id="stop1" />
      <stop
         style="stop-color:#edf2f7;stop-opacity:1;"
         offset="1"
         id="stop2" />
    </linearGradient>
    <linearGradient
       inkscape:collect="always"
       xlink:href="#linearGradient2"
       id="linearGradient6"
       x1="32.013439"
       y1="58.784042"
       x2="31.886276"
       y2="5.8783388"
       gradientUnits="userSpaceOnUse"
       gradientTransform="matrix(0.9,0,0,0.9,3.1949856,3.1897537)" />
    <filter
       style="color-interpolation-filters:sRGB;"
       inkscape:label="Blur"
       id="filter11"
       x="-0.12048148"
       y="-0.12078193"
       width="1.240963"
       height="1.2415639">
      <feGaussianBlur
         stdDeviation="1.7 1.7"
         result="blur"
         id="feGaussianBlur11" />
    </filter>
  </defs>
  <g
     id="g877"
     transform="matrix(1.1,0,0,1.1,-3.1845928,-3.2065454)">
    <ellipse
       style="fill:none;stroke:#000000;stroke-width:3.18182;stroke-dasharray:none;stroke-opacity:1;filter:url(#filter11);opacity:0.5"
       id="path2-9"
       cx="31.949856"
       cy="31.897537"
       rx="23.534365"
       ry="23.475822" />
    <path
       style="fill:#f5f7fa;stroke-width:0.204426;fill-opacity:1"
       d=""
       id="path3" />
    <ellipse
       style="opacity:1;fill:#ffffff;stroke:url(#linearGradient6);stroke-width:3.18181818;stroke-dasharray:none;stroke-opacity:1;fill-opacity:0.5"
       id="path2"
       cx="31.949856"
       cy="31.897537"
       rx="23.534365"
       ry="23.475822" />
    <path
       id="path5-7"
       style="fill:#3c3c43;fill-opacity:1;stroke:none;stroke-width:0.0345081"
       d="m 31.986046,23.429248 c -5.508879,8.2e-5 -11.018785,0.01725 -11.146666,0.0517 -0.554834,0.149525 -0.978836,0.549074 -1.167976,1.100128 l -0.07431,0.214852 -0.0097,7.022399 c -0.0062,4.563052 0.0032,7.124482 0.02588,7.311564 0.07928,0.656757 0.517461,1.189862 1.140514,1.389301 0.180017,0.05756 0.778491,0.06128 11.219362,0.06302 10.908253,0.0018 11.033173,0.0015 11.250056,-0.06623 0.281461,-0.08789 0.441216,-0.186963 0.675257,-0.41841 0.256104,-0.253238 0.414417,-0.586664 0.460408,-0.967655 0.02224,-0.187061 0.03221,-2.748514 0.02578,-7.311568 l -0.0097,-7.022401 -0.07432,-0.214853 c -0.187463,-0.546402 -0.619686,-0.953479 -1.167902,-1.100139 -0.128808,-0.03447 -5.637785,-0.05178 -11.146664,-0.0517 z m 0,1.613843 c 0.01786,-6.3e-5 1.055204,1.303669 2.305259,2.896517 l 2.27295,2.896518 -1.038741,0.0081 -1.037124,0.0097 v 2.898108 2.898137 h -2.502344 -2.502347 v -2.898137 -2.898132 l -1.037124,-0.0097 -1.038739,-0.0081 2.272951,-2.896517 c 1.250035,-1.592754 2.287393,-2.896426 2.305259,-2.896489 z m 0,1.384448 c -0.01472,0 -0.658441,0.805677 -1.431298,1.789929 l -1.405449,1.789926 0.599337,0.0097 0.597719,0.0097 v 2.880337 2.880362 h 1.639691 1.63969 v -2.880368 -2.880363 l 0.59772,-0.0097 0.599335,-0.0097 -1.405448,-1.789916 c -0.772856,-0.984245 -1.416559,-1.789928 -1.431297,-1.789928 z" />
    <ellipse
       style="opacity:0.3;fill:none;stroke:#000000;stroke-width:1.64432;stroke-dasharray:none;stroke-opacity:1"
       id="path2-93"
       cx="31.949856"
       cy="31.897537"
       rx="21.284058"
       ry="21.231113" />
    <path
       style="fill:#f5f7fa;fill-opacity:1;stroke-width:0.097776"
       d=""
       id="path3-9" />
  </g>
</svg>
