<?xml version="1.0" encoding="UTF-8" standalone="no"?>
<svg
   width="64"
   height="64"
   version="1.1"
   id="svg73"
   sodipodi:docname="accessories-text-editor.svg"
   inkscape:version="1.4.2 (ebf0e940d0, 2025-05-08)"
   xmlns:inkscape="http://www.inkscape.org/namespaces/inkscape"
   xmlns:sodipodi="http://sodipodi.sourceforge.net/DTD/sodipodi-0.dtd"
   xmlns:xlink="http://www.w3.org/1999/xlink"
   xmlns="http://www.w3.org/2000/svg"
   xmlns:svg="http://www.w3.org/2000/svg"
   xmlns:rdf="http://www.w3.org/1999/02/22-rdf-syntax-ns#"
   xmlns:cc="http://creativecommons.org/ns#"
   xmlns:dc="http://purl.org/dc/elements/1.1/">
  <metadata
     id="metadata77">
    <rdf:RDF>
      <cc:Work
         rdf:about="">
        <dc:format>image/svg+xml</dc:format>
        <dc:type
           rdf:resource="http://purl.org/dc/dcmitype/StillImage" />
      </cc:Work>
    </rdf:RDF>
  </metadata>
  <sodipodi:namedview
     pagecolor="#f5f7fa"
     bordercolor="#666666"
     borderopacity="1"
     objecttolerance="10"
     gridtolerance="10"
     guidetolerance="10"
     inkscape:pageopacity="0"
     inkscape:pageshadow="2"
     inkscape:window-width="1341"
     inkscape:window-height="844"
     id="namedview75"
     showgrid="false"
     inkscape:zoom="6.2890624"
     inkscape:cx="31.403727"
     inkscape:cy="34.106833"
     inkscape:window-x="26"
     inkscape:window-y="64"
     inkscape:window-maximized="0"
     inkscape:current-layer="g877"
     inkscape:document-rotation="0"
     inkscape:pagecheckerboard="0"
     inkscape:showpageshadow="2"
     inkscape:deskcolor="#d1d1d1" />
  <defs
     id="defs29">
    <linearGradient
       id="linearGradient2"
       inkscape:collect="always">
      <stop
         style="stop-color:#a7b6be;stop-opacity:1;"
         offset="0"
         id="stop1" />
      <stop
         style="stop-color:#edf2f7;stop-opacity:1;"
         offset="1"
         id="stop2" />
    </linearGradient>
    <linearGradient
       inkscape:collect="always"
       xlink:href="#linearGradient2"
       id="linearGradient6"
       x1="32.013439"
       y1="58.784042"
       x2="31.886276"
       y2="5.8783388"
       gradientUnits="userSpaceOnUse"
       gradientTransform="matrix(0.9,0,0,0.9,3.1949856,3.1897537)" />
    <filter
       style="color-interpolation-filters:sRGB;"
       inkscape:label="Blur"
       id="filter11"
       x="-0.12048148"
       y="-0.12078193"
       width="1.240963"
       height="1.2415639">
      <feGaussianBlur
         stdDeviation="1.7 1.7"
         result="blur"
         id="feGaussianBlur11" />
    </filter>
  </defs>
  <g
     id="g877"
     transform="matrix(1.1,0,0,1.1,-3.1845928,-3.2065454)">
    <ellipse
       style="fill:none;stroke:#000000;stroke-width:3.18182;stroke-dasharray:none;stroke-opacity:1;filter:url(#filter11);opacity:0.5"
       id="path2-9"
       cx="31.949856"
       cy="31.897537"
       rx="23.534365"
       ry="23.475822" />
    <path
       style="fill:#f5f7fa;stroke-width:0.204426;fill-opacity:1"
       d=""
       id="path3" />
    <ellipse
       style="opacity:1;fill:#ffffff;stroke:url(#linearGradient6);stroke-width:3.18181818;stroke-dasharray:none;stroke-opacity:1;fill-opacity:0.5"
       id="path2"
       cx="31.949856"
       cy="31.897537"
       rx="23.534365"
       ry="23.475822" />
    <path
       style="fill:#3c3c43;fill-opacity:1;stroke:none;stroke-width:0.382725;stroke-dasharray:none;stroke-dashoffset:2.2;stroke-opacity:0.6"
       d="m 23.092017,41.131743 c -1.120088,-0.263017 -2.478157,-1.434761 -3.056452,-2.63709 -0.472393,-0.982145 -0.607103,-1.602499 -0.606576,-2.793337 3.73e-4,-0.84546 0.03891,-1.168876 0.202183,-1.697289 0.638532,-2.066404 2.087986,-3.46295 3.894299,-3.752145 0.506564,-0.08111 0.735204,-0.07489 1.262087,0.03429 0.353895,0.07333 0.711994,0.160675 0.79577,0.194099 0.136936,0.05464 0.152318,-0.0052 0.152318,-0.593686 0,-1.966839 0.793179,-3.891363 2.17606,-5.279856 1.166114,-1.170846 2.285269,-1.711498 3.737593,-1.805589 3.410704,-0.220972 6.314048,2.807374 6.588945,6.872636 0.03156,0.466753 0.06617,0.848643 0.07688,0.848643 0.01078,0 0.190918,-0.06428 0.400356,-0.142827 0.571909,-0.214469 1.80828,-0.19218 2.46281,0.04441 1.51133,0.546274 2.741011,1.983658 3.189276,3.727966 0.219796,0.855296 0.235156,2.222627 0.03424,3.052546 -0.444566,1.836637 -1.766725,3.368795 -3.321435,3.848997 -0.551657,0.170403 -0.785908,0.174664 -9.108775,0.166142 -4.787072,-0.005 -8.690729,-0.04355 -8.879609,-0.08789 z"
       id="path99" />
    <ellipse
       style="opacity:0.3;fill:none;stroke:#000000;stroke-width:1.64432;stroke-dasharray:none;stroke-opacity:1"
       id="path2-93"
       cx="31.949856"
       cy="31.897537"
       rx="21.284058"
       ry="21.231113" />
    <path
       style="fill:#f5f7fa;fill-opacity:1;stroke-width:0.097776"
       d=""
       id="path3-9" />
  </g>
</svg>
