<?xml version="1.0" encoding="UTF-8" standalone="no"?>
<svg
   width="64"
   height="64"
   version="1.1"
   id="svg73"
   sodipodi:docname="com.system76.CosmicStore.svg"
   inkscape:version="1.4.2 (ebf0e940d0, 2025-05-08)"
   xmlns:inkscape="http://www.inkscape.org/namespaces/inkscape"
   xmlns:sodipodi="http://sodipodi.sourceforge.net/DTD/sodipodi-0.dtd"
   xmlns:xlink="http://www.w3.org/1999/xlink"
   xmlns="http://www.w3.org/2000/svg"
   xmlns:svg="http://www.w3.org/2000/svg"
   xmlns:rdf="http://www.w3.org/1999/02/22-rdf-syntax-ns#"
   xmlns:cc="http://creativecommons.org/ns#"
   xmlns:dc="http://purl.org/dc/elements/1.1/">
  <metadata
     id="metadata77">
    <rdf:RDF>
      <cc:Work
         rdf:about="">
        <dc:format>image/svg+xml</dc:format>
        <dc:type
           rdf:resource="http://purl.org/dc/dcmitype/StillImage" />
      </cc:Work>
    </rdf:RDF>
  </metadata>
  <sodipodi:namedview
     pagecolor="#f5f7fa"
     bordercolor="#666666"
     borderopacity="1"
     objecttolerance="10"
     gridtolerance="10"
     guidetolerance="10"
     inkscape:pageopacity="0"
     inkscape:pageshadow="2"
     inkscape:window-width="965"
     inkscape:window-height="943"
     id="namedview75"
     showgrid="false"
     inkscape:zoom="6.2890624"
     inkscape:cx="31.403727"
     inkscape:cy="34.504348"
     inkscape:window-x="35"
     inkscape:window-y="27"
     inkscape:window-maximized="0"
     inkscape:current-layer="g877"
     inkscape:document-rotation="0"
     inkscape:pagecheckerboard="0"
     inkscape:showpageshadow="2"
     inkscape:deskcolor="#d1d1d1" />
  <defs
     id="defs29">
    <linearGradient
       id="linearGradient2"
       inkscape:collect="always">
      <stop
         style="stop-color:#a7b6be;stop-opacity:1;"
         offset="0"
         id="stop1" />
      <stop
         style="stop-color:#edf2f7;stop-opacity:1;"
         offset="1"
         id="stop2" />
    </linearGradient>
    <linearGradient
       inkscape:collect="always"
       xlink:href="#linearGradient2"
       id="linearGradient6"
       x1="32.013439"
       y1="58.784042"
       x2="31.886276"
       y2="5.8783388"
       gradientUnits="userSpaceOnUse"
       gradientTransform="matrix(0.9,0,0,0.9,3.1949856,3.1897537)" />
    <filter
       style="color-interpolation-filters:sRGB;"
       inkscape:label="Blur"
       id="filter11"
       x="-0.12048148"
       y="-0.12078193"
       width="1.240963"
       height="1.2415639">
      <feGaussianBlur
         stdDeviation="1.7 1.7"
         result="blur"
         id="feGaussianBlur11" />
    </filter>
    <filter
       style="color-interpolation-filters:sRGB"
       inkscape:label="Blur"
       id="filter11-3"
       x="-0.12048148"
       y="-0.12078193"
       width="1.240963"
       height="1.2415639">
      <feGaussianBlur
         stdDeviation="1.7 1.7"
         result="blur"
         id="feGaussianBlur11-5" />
    </filter>
    <linearGradient
       inkscape:collect="always"
       xlink:href="#linearGradient2"
       id="linearGradient3"
       gradientUnits="userSpaceOnUse"
       gradientTransform="matrix(0.43046721,0,0,0.43046721,33.374356,33.489112)"
       x1="32.013439"
       y1="58.784042"
       x2="31.886276"
       y2="5.8783388" />
  </defs>
  <g
     id="g877"
     transform="matrix(1.1,0,0,1.1,-3.1845928,-3.2065454)">
    <ellipse
       style="fill:none;stroke:#000000;stroke-width:3.18182;stroke-dasharray:none;stroke-opacity:1;filter:url(#filter11);opacity:0.5"
       id="path2-9"
       cx="31.949856"
       cy="31.897537"
       rx="23.534365"
       ry="23.475822" />
    <path
       style="fill:#f5f7fa;stroke-width:0.204426;fill-opacity:1"
       d=""
       id="path3" />
    <ellipse
       style="opacity:1;fill:#ffffff;stroke:url(#linearGradient6);stroke-width:3.18181818;stroke-dasharray:none;stroke-opacity:1;fill-opacity:0.5"
       id="path2"
       cx="31.949856"
       cy="31.897537"
       rx="23.534365"
       ry="23.475822" />
    <path
       style="fill:#3c3c43;fill-opacity:1;stroke:none;stroke-width:0.350934;stroke-dasharray:none;stroke-opacity:0.6"
       d="M 22.076172,20.379121 V 43.632779 H 41.895869 V 20.379121 h -1.23873 v 1.453353 h -1.238737 v -1.453353 h -14.86477 v 1.453353 h -1.238731 l -2.47e-4,-1.453353 H 22.07612 Z m 4.954923,2.906707 h 9.909849 v 7.26677 h -9.909849 z m -3.716441,1.453356 h 1.238731 v 2.906706 h -1.238731 z m 16.103503,0 h 1.23873 v 2.906706 h -1.23873 z m -16.103503,5.813414 h 1.238731 v 2.906706 h -1.238731 z m 16.103503,0 h 1.23873 v 2.906706 h -1.23873 z m -12.387309,2.906706 h 9.909846 v 7.266768 h -9.909846 z m -3.716444,2.906701 h 1.238732 v 2.906718 h -1.238732 z m 16.103505,0 h 1.238732 v 2.906718 h -1.238732 z m -16.103503,5.813427 h 1.238732 v 1.453347 h -1.238732 z m 16.103503,0 h 1.238732 v 1.453347 h -1.238732 z"
       id="path4" />
    <ellipse
       style="opacity:0.3;fill:none;stroke:#000000;stroke-width:1.64432;stroke-dasharray:none;stroke-opacity:1"
       id="path2-93"
       cx="31.949856"
       cy="31.897537"
       rx="21.284058"
       ry="21.231113" />
    <ellipse
       style="opacity:0.5;fill:none;stroke:#000000;stroke-width:3.18182;stroke-dasharray:none;stroke-opacity:1;filter:url(#filter11-3)"
       id="path2-9-2"
       cx="31.949856"
       cy="31.897537"
       rx="23.534365"
       ry="23.475822"
       transform="matrix(0.4782969,0,0,0.4782969,31.846205,31.963463)" />
    <path
       style="fill:#f5f7fa;fill-opacity:1;stroke-width:0.097776"
       d=""
       id="path3-9" />
    <ellipse
       style="fill:#ffffff;stroke:url(#linearGradient3);stroke-width:1.52185;stroke-dasharray:none;stroke-opacity:1;fill-opacity:0.5"
       id="path2-1"
       cx="47.12772"
       cy="47.219955"
       rx="11.256413"
       ry="11.228415" />
    <path
       style="color:#000000;clip-rule:nonzero;display:inline;overflow:visible;visibility:visible;isolation:auto;mix-blend-mode:normal;color-interpolation:sRGB;color-interpolation-filters:linearRGB;solid-color:#000000;solid-opacity:1;fill:#3c3c43;fill-opacity:1;fill-rule:nonzero;stroke:none;stroke-width:0.404999;stroke-linecap:butt;stroke-linejoin:miter;stroke-miterlimit:4;stroke-dasharray:none;stroke-dashoffset:0;stroke-opacity:0.6;marker:none;color-rendering:auto;image-rendering:auto;shape-rendering:auto;text-rendering:auto;enable-background:accumulate"
       d="m 46.073903,40.479337 c -0.169636,0 -0.311026,0.674985 -0.394013,1.639634 a 5.1847632,5.3408952 0 0 0 -1.252925,0.542435 c -0.723766,-0.624859 -1.289132,-1.002047 -1.409422,-0.878139 l -1.333933,1.374108 c -0.120286,0.123898 0.245866,0.7063 0.852463,1.451863 a 5.1847632,5.3408952 0 0 0 -0.521972,1.290655 c -0.939072,0.0854 -1.596303,0.230834 -1.596303,0.405878 v 1.942139 c 0,0.17475 0.655251,0.320396 1.591699,0.405882 a 5.1847632,5.3408952 0 0 0 0.524737,1.293496 c -0.605211,0.744226 -0.970767,1.325258 -0.850624,1.449022 l 1.333933,1.374102 c 0.120041,0.123622 0.683369,-0.252021 1.404821,-0.874346 a 5.1847632,5.3408952 0 0 0 1.257526,0.533903 c 0.08292,0.967353 0.22407,1.644375 0.394013,1.644375 h 1.885367 c 0.169638,0 0.311029,-0.674985 0.394016,-1.639634 a 5.1847632,5.3408952 0 0 0 1.252922,-0.542432 c 0.72377,0.624857 1.289133,1.002044 1.409425,0.878134 L 52.349566,51.39631 C 52.469852,51.272443 52.1037,50.690006 51.497103,49.94444 a 5.1847632,5.3408952 0 0 0 0.521972,-1.290648 c 0.939068,-0.0854 1.596303,-0.230836 1.596303,-0.405882 v -1.942139 c 0,-0.17475 -0.655253,-0.320394 -1.591699,-0.405878 a 5.1847632,5.3408952 0 0 0 -0.524743,-1.2935 c 0.605218,-0.744226 0.970773,-1.325258 0.85063,-1.449018 l -1.333934,-1.374108 c -0.12004,-0.123652 -0.683368,0.252021 -1.404823,0.874346 a 5.1847632,5.3408952 0 0 0 -1.257523,-0.533901 c -0.08292,-0.96735 -0.22407,-1.64437 -0.394016,-1.64437 z m 0.942683,4.369826 a 2.3567106,2.4276794 0 0 1 2.35671,2.427681 2.3567106,2.4276794 0 0 1 -2.35671,2.427675 2.3567106,2.4276794 0 0 1 -2.35671,-2.427675 2.3567106,2.4276794 0 0 1 2.35671,-2.427681 z"
       id="path4690"
       inkscape:connector-curvature="0" />
    <ellipse
       style="opacity:0.3;fill:none;stroke:#000000;stroke-width:0.786474;stroke-dasharray:none;stroke-opacity:1"
       id="path2-93-2"
       cx="47.12772"
       cy="47.219955"
       rx="10.180098"
       ry="10.154776" />
  </g>
</svg>
