<?xml version="1.0" encoding="UTF-8" standalone="no"?>
<svg
   width="64"
   height="64"
   version="1.1"
   id="svg73"
   sodipodi:docname="accessories-text-editor.svg"
   inkscape:version="1.4.2 (ebf0e940d0, 2025-05-08)"
   xmlns:inkscape="http://www.inkscape.org/namespaces/inkscape"
   xmlns:sodipodi="http://sodipodi.sourceforge.net/DTD/sodipodi-0.dtd"
   xmlns:xlink="http://www.w3.org/1999/xlink"
   xmlns="http://www.w3.org/2000/svg"
   xmlns:svg="http://www.w3.org/2000/svg"
   xmlns:rdf="http://www.w3.org/1999/02/22-rdf-syntax-ns#"
   xmlns:cc="http://creativecommons.org/ns#"
   xmlns:dc="http://purl.org/dc/elements/1.1/">
  <metadata
     id="metadata77">
    <rdf:RDF>
      <cc:Work
         rdf:about="">
        <dc:format>image/svg+xml</dc:format>
        <dc:type
           rdf:resource="http://purl.org/dc/dcmitype/StillImage" />
      </cc:Work>
    </rdf:RDF>
  </metadata>
  <sodipodi:namedview
     pagecolor="#f5f7fa"
     bordercolor="#666666"
     borderopacity="1"
     objecttolerance="10"
     gridtolerance="10"
     guidetolerance="10"
     inkscape:pageopacity="0"
     inkscape:pageshadow="2"
     inkscape:window-width="1341"
     inkscape:window-height="844"
     id="namedview75"
     showgrid="false"
     inkscape:zoom="6.2890624"
     inkscape:cx="31.403727"
     inkscape:cy="26.792547"
     inkscape:window-x="26"
     inkscape:window-y="64"
     inkscape:window-maximized="0"
     inkscape:current-layer="g877"
     inkscape:document-rotation="0"
     inkscape:pagecheckerboard="0"
     inkscape:showpageshadow="2"
     inkscape:deskcolor="#d1d1d1" />
  <defs
     id="defs29">
    <linearGradient
       id="linearGradient2"
       inkscape:collect="always">
      <stop
         style="stop-color:#a7b6be;stop-opacity:1;"
         offset="0"
         id="stop1" />
      <stop
         style="stop-color:#edf2f7;stop-opacity:1;"
         offset="1"
         id="stop2" />
    </linearGradient>
    <linearGradient
       inkscape:collect="always"
       xlink:href="#linearGradient2"
       id="linearGradient6"
       x1="32.013439"
       y1="58.784042"
       x2="31.886276"
       y2="5.8783388"
       gradientUnits="userSpaceOnUse"
       gradientTransform="matrix(0.9,0,0,0.9,3.1949856,3.1897537)" />
    <filter
       style="color-interpolation-filters:sRGB;"
       inkscape:label="Blur"
       id="filter11"
       x="-0.12048148"
       y="-0.12078193"
       width="1.240963"
       height="1.2415639">
      <feGaussianBlur
         stdDeviation="1.7 1.7"
         result="blur"
         id="feGaussianBlur11" />
    </filter>
  </defs>
  <g
     id="g877"
     transform="matrix(1.1,0,0,1.1,-3.1845928,-3.2065454)">
    <ellipse
       style="fill:none;stroke:#000000;stroke-width:3.18182;stroke-dasharray:none;stroke-opacity:1;filter:url(#filter11);opacity:0.5"
       id="path2-9"
       cx="31.949856"
       cy="31.897537"
       rx="23.534365"
       ry="23.475822" />
    <path
       style="fill:#f5f7fa;stroke-width:0.204426;fill-opacity:1"
       d=""
       id="path3" />
    <ellipse
       style="opacity:1;fill:#ffffff;stroke:url(#linearGradient6);stroke-width:3.18181818;stroke-dasharray:none;stroke-opacity:1;fill-opacity:0.5"
       id="path2"
       cx="31.949856"
       cy="31.897537"
       rx="23.534365"
       ry="23.475822" />
    <path
       id="path11"
       style="fill:#3c3c43;fill-opacity:1;stroke:none;stroke-width:0.0391538;stroke-opacity:1"
       d="m 31.731532,19.13251 -0.264289,0.01195 c -1.295714,0.06221 -2.50581,0.289712 -3.670656,0.690057 -2.034051,0.69908 -3.935576,1.952689 -5.354572,3.529338 -2.021809,2.246436 -3.151306,4.944027 -3.340298,7.978175 l -0.02663,0.421207 h 1.155339 1.155339 l 0.02663,-0.381748 c 0.134725,-1.925293 0.750223,-3.74673 1.78394,-5.276569 0.735763,-1.088883 1.787994,-2.141115 2.876878,-2.876877 1.52984,-1.033718 3.351275,-1.649215 5.276571,-1.783941 l 0.381748,-0.02663 v -1.142489 z m 0,2.792452 -0.362476,0.02663 c -0.960147,0.07093 -2.026086,0.293798 -2.844761,0.59463 -0.918696,0.337583 -2.094174,1.002672 -2.842007,1.606829 -0.425141,0.343466 -1.177212,1.092496 -1.526996,1.52149 -0.633838,0.777383 -1.301008,1.950873 -1.646287,2.89523 -0.197404,0.539915 -0.427273,1.471855 -0.512974,2.077591 -0.09975,0.705051 -0.09975,2.035098 0,2.740148 0.08611,0.608593 0.316511,1.540811 0.513892,2.077593 0.343142,0.933191 0.981256,2.065924 1.600405,2.840173 0.355632,0.444716 1.098375,1.189361 1.548102,1.552682 0.797956,0.644659 1.920916,1.283242 2.875961,1.634363 0.699558,0.257213 1.695301,0.480661 2.511645,0.564364 0.45829,0.04697 1.307749,0.04832 1.801376,0.003 1.356972,-0.125215 2.586444,-0.48193 3.762425,-1.092021 2.793039,-1.449012 4.780713,-4.151368 5.301351,-7.207334 0.06998,-0.410594 0.15688,-1.183512 0.156906,-1.400355 v -0.08819 H 40.91275 c -1.075465,0 -1.155342,0.0049 -1.155342,0.06882 0,0.20465 -0.129243,1.129161 -0.200947,1.436147 -0.338503,1.447363 -1.098219,2.782736 -2.173051,3.821014 -0.612507,0.59168 -1.18072,0.993918 -1.951875,1.381087 -2.994931,1.503689 -6.679664,0.865389 -9.026128,-1.563687 -0.823383,-0.852371 -1.414527,-1.821654 -1.780269,-2.920929 -1.233788,-3.708297 0.41636,-7.687437 3.914757,-9.439114 0.876096,-0.438669 1.830944,-0.699697 2.88789,-0.790109 l 0.303747,-0.02663 v -1.156262 z m 0.408361,2.834665 c -0.84265,-0.01939 -1.695108,0.107517 -2.519905,0.390926 -0.490341,0.168486 -1.379508,0.62448 -1.784859,0.914912 -1.044034,0.748036 -1.778069,1.600843 -2.327198,2.70252 -0.317609,0.637203 -0.465973,1.044965 -0.603821,1.666479 -0.241264,1.087784 -0.241264,2.078159 0,3.165943 0.137849,0.621515 0.286212,1.029275 0.603821,1.666476 0.416183,0.834956 1.002139,1.603186 1.655466,2.171197 1.148777,0.998757 2.563016,1.634423 4.000102,1.796783 0.771681,0.08718 1.612695,0.03994 2.405197,-0.135803 0.621515,-0.137868 1.029276,-0.286198 1.666479,-0.603827 1.09894,-0.547768 1.954309,-1.283866 2.702524,-2.3272 0.290483,-0.405048 0.74625,-1.294005 0.91491,-1.784857 0.893641,-2.600744 0.231841,-5.500077 -1.701351,-7.45786 -1.352464,-1.369681 -3.157537,-2.123043 -5.011365,-2.165689 z m -0.173437,2.565788 c 0.731336,-8.84e-4 0.975696,0.03571 1.558194,0.231256 0.658369,0.22101 1.403965,0.700285 1.880294,1.209481 1.759209,1.880602 1.720112,4.772364 -0.08901,6.581492 -0.611808,0.611807 -1.338129,1.025637 -2.169358,1.237007 -0.36971,0.09403 -0.559819,0.118905 -1.003925,0.131232 -0.619593,0.01689 -0.870774,-0.01019 -1.412286,-0.154171 -1.598922,-0.42557 -2.881836,-1.735147 -3.315526,-3.383431 -0.112637,-0.428092 -0.120213,-0.499682 -0.120213,-1.160846 0,-0.661165 0.0076,-0.732754 0.120213,-1.160846 0.443743,-1.686503 1.72468,-2.967611 3.410042,-3.41004 0.424418,-0.111416 0.504289,-0.120333 1.141575,-0.121134 z m 10.617377,4.946214 -0.02598,0.381748 c -0.128546,1.872135 -0.701844,3.609081 -1.694926,5.138919 -0.768382,1.183686 -1.918944,2.334245 -3.102626,3.102624 -1.27486,0.827575 -2.72155,1.374891 -4.213912,1.593986 -0.298662,0.04385 -0.564976,0.07973 -0.591893,0.0798 -0.03805,1.58e-4 -0.04864,0.257512 -0.04864,1.155337 v 1.155341 h 0.09544 c 0.170007,0 1.008485,-0.115869 1.431556,-0.198213 2.60388,-0.506682 4.935269,-1.771116 6.792554,-3.682588 0.576354,-0.593173 0.971656,-1.072868 1.398523,-1.698597 1.3566,-1.988625 2.091303,-4.150561 2.246439,-6.607186 l 0.02651,-0.421208 h -1.156045 z" />
    <ellipse
       style="opacity:0.3;fill:none;stroke:#000000;stroke-width:1.64432;stroke-dasharray:none;stroke-opacity:1"
       id="path2-93"
       cx="31.949856"
       cy="31.897537"
       rx="21.284058"
       ry="21.231113" />
    <path
       style="fill:#f5f7fa;fill-opacity:1;stroke-width:0.097776"
       d=""
       id="path3-9" />
  </g>
</svg>
